<?xml version="1.0" encoding="UTF-8" standalone="no"?>
<!-- Created with Inkscape (http://www.inkscape.org/) -->

<svg
   width="1500"
   height="1500"
   viewBox="0 0 396.87499 396.875"
   version="1.1"
   id="svg1"
   inkscape:export-filename="MilkTank.png"
   inkscape:export-xdpi="96"
   inkscape:export-ydpi="96"
   inkscape:version="1.4 (e7c3feb100, 2024-10-09)"
   sodipodi:docname="MilkTankBase.svg"
   xmlns:inkscape="http://www.inkscape.org/namespaces/inkscape"
   xmlns:sodipodi="http://sodipodi.sourceforge.net/DTD/sodipodi-0.dtd"
   xmlns="http://www.w3.org/2000/svg"
   xmlns:svg="http://www.w3.org/2000/svg">
  <sodipodi:namedview
     id="namedview1"
     pagecolor="#ffffff"
     bordercolor="#000000"
     borderopacity="0.25"
     inkscape:showpageshadow="2"
     inkscape:pageopacity="0.0"
     inkscape:pagecheckerboard="0"
     inkscape:deskcolor="#d1d1d1"
     inkscape:document-units="mm"
     showgrid="true"
     inkscape:zoom="0.55189197"
     inkscape:cx="657.73741"
     inkscape:cy="722.0616"
     inkscape:window-width="1920"
     inkscape:window-height="1060"
     inkscape:window-x="0"
     inkscape:window-y="0"
     inkscape:window-maximized="1"
     inkscape:current-layer="layer1">
    <inkscape:grid
       id="grid6"
       units="mm"
       originx="0"
       originy="0"
       spacingx="10"
       spacingy="9.9999999"
       empcolor="#0099e5"
       empopacity="0.30196078"
       color="#0099e5"
       opacity="0.14901961"
       empspacing="5"
       enabled="false"
       visible="true" />
  </sodipodi:namedview>
  <defs
     id="defs1" />
  <g
     inkscape:label="Layer 1"
     inkscape:groupmode="layer"
     id="layer1">
    <path
       style="fill:#66707d;fill-opacity:1;fill-rule:evenodd;stroke:#242424;stroke-width:8;stroke-dasharray:none;stroke-opacity:1"
       d="m 70.688444,300.0906 c 10.228775,1e-5 18.520835,-40.27571 18.520834,-89.95832 10e-7,-49.68261 -8.292059,-89.95833 -18.520834,-89.95833 l 23.812487,-10.58333 c 10.228779,-2e-5 18.927519,45.01401 18.927519,100.54165 0,55.52764 -8.69874,100.54168 -18.927519,100.54166 z"
       id="path12" />
    <path
       style="fill:#3c434a;fill-opacity:1;fill-rule:evenodd;stroke:#212121;stroke-width:8;stroke-linejoin:bevel;stroke-dasharray:none;stroke-opacity:1"
       d="m 120,309.99998 -20,40 h 20 l 20,-40 20,40 h 20 l -20,-40 z"
       id="path6" />
    <path
       style="fill:#3c434a;fill-opacity:1;fill-rule:evenodd;stroke:#212121;stroke-width:8;stroke-linejoin:bevel;stroke-dasharray:none;stroke-opacity:1"
       d="m 240.00001,310 -20,40 h 20 l 20,-40 20,40 h 20 l -20,-40 z"
       id="path7" />
    <path
       id="path5"
       style="fill:#66707d;fill-opacity:1;fill-rule:evenodd;stroke:#242424;stroke-width:8;stroke-linejoin:bevel;stroke-dasharray:none;stroke-opacity:1"
       d="m 303.95948,109.32604 -209.458529,0.26458 v 201.08334 l 209.460599,-0.13281 28.59662,-11.06117 c 4.7862,-0.34605 12.93396,-40.39804 12.94089,-89.61224 -0.007,-49.2142 -10.35816,-82.99479 -12.94088,-89.61226 -2.86474,-1.55237 -28.5987,-10.92944 -28.5987,-10.92944 z"
       sodipodi:nodetypes="cccccccc" />
    <ellipse
       style="fill:#66707d;fill-opacity:1;fill-rule:evenodd;stroke:#242424;stroke-width:8;stroke-dasharray:none;stroke-opacity:1"
       id="path1"
       cx="71.482193"
       cy="210.13228"
       rx="18.520834"
       ry="89.958321" />
    <path
       style="fill:#66707d;fill-opacity:1;fill-rule:evenodd;stroke:#242424;stroke-width:6;stroke-dasharray:none;stroke-opacity:1"
       d="m 70.688444,300.0906 c 10.228775,1e-5 18.520835,-40.27571 18.520834,-89.95832 10e-7,-49.68261 -8.292059,-89.95833 -18.520834,-89.95833 l 23.812487,-10.58333 c 10.228779,-2e-5 18.927519,45.01401 18.927519,100.54165 0,55.52764 -8.69874,100.54168 -18.927519,100.54166 z"
       id="path3" />
    <ellipse
       style="fill:#66707d;fill-opacity:1;fill-rule:evenodd;stroke:#242424;stroke-width:6;stroke-linejoin:round;stroke-dasharray:none;stroke-opacity:1"
       id="ellipse8"
       cx="94.86763"
       cy="-155.04385"
       rx="6.1800919"
       ry="30.017584"
       transform="rotate(90)" />
    <path
       id="path9"
       style="fill:#66707d;fill-opacity:1;fill-rule:evenodd;stroke:#242424;stroke-width:6;stroke-linejoin:round;stroke-dasharray:none;stroke-opacity:1"
       d="M 125.02648 94.602494 L 121.49491 102.54826 L 121.5378 124.42548 L 121.55847 124.42548 A 33.507076 9.1910858 0 0 0 155.06547 133.61665 A 33.507076 9.1910858 0 0 0 188.57247 124.42548 A 33.507076 9.1910858 0 0 0 188.44276 123.62243 L 188.44276 102.54826 L 188.59314 102.54826 L 185.06157 94.602494 C 185.06157 98.015662 171.62203 100.78248 155.04377 100.78248 C 138.46551 100.78248 125.02647 98.015662 125.02648 94.602494 z " />
  </g>
</svg>
